<?xml version="1.0" standalone="no"?>
<!DOCTYPE svg PUBLIC "-//W3C//DTD SVG 20010904//EN"
 "http://www.w3.org/TR/2001/REC-SVG-20010904/DTD/svg10.dtd">
<svg version="1.0" xmlns="http://www.w3.org/2000/svg"
 width="240.000000pt" height="240.000000pt" viewBox="0 0 240.000000 240.000000"
 preserveAspectRatio="xMidYMid meet">
<metadata>
Created by potrace 1.15, written by Peter Selinger 2001-2017
</metadata>
<g transform="translate(0.000000,240.000000) scale(0.100000,-0.100000)"
fill="#000000" stroke="none">
<path d="M269 2089 c-6 -12 -9 -41 -6 -68 42 -361 28 -884 -30 -1106 -8 -33
-16 -85 -16 -116 -1 -47 3 -62 26 -92 38 -51 55 -58 108 -46 59 14 88 34 105
75 13 31 13 42 -2 100 -14 58 -15 87 -5 232 6 92 13 247 17 345 5 147 8 175
19 160 25 -36 85 -161 175 -363 318 -712 301 -680 378 -688 44 -4 54 -1 76 21
38 38 51 100 32 151 -26 67 -37 191 -34 371 3 190 11 194 49 25 10 -47 45
-195 78 -330 32 -135 62 -271 66 -302 5 -39 18 -74 43 -112 35 -56 35 -56 84
-56 44 0 54 4 85 35 33 33 35 37 30 92 -2 32 -18 94 -34 138 -34 88 -106 355
-178 655 -26 107 -57 227 -70 265 -13 39 -31 113 -41 165 -16 88 -20 98 -59
138 -44 44 -84 54 -125 32 -29 -16 -37 -38 -50 -130 -6 -47 -19 -143 -30 -215
-11 -71 -24 -183 -30 -249 -5 -65 -11 -121 -14 -123 -3 -3 -10 15 -16 38 -7
24 -20 58 -30 74 -10 17 -38 78 -63 136 -25 59 -66 147 -90 195 -24 49 -50
107 -57 129 -7 22 -39 90 -71 150 -32 61 -69 141 -84 180 -39 105 -52 115
-146 115 -69 0 -80 -2 -90 -21z"/>
<path d="M1649 1732 c-33 -27 -30 -117 6 -203 69 -167 77 -195 96 -349 22
-183 26 -205 46 -248 35 -74 109 -72 128 4 l10 40 55 -17 c30 -10 81 -18 112
-18 53 -1 58 1 64 24 9 37 -37 108 -101 155 -30 22 -55 45 -55 50 0 4 36 41
80 81 54 48 80 79 80 94 0 25 -53 109 -83 130 -25 18 -51 6 -128 -60 -55 -47
-69 -53 -69 -32 -1 6 -23 68 -49 137 -38 99 -58 136 -96 178 -26 28 -53 52
-60 52 -7 0 -23 -8 -36 -18z"/>
</g>
</svg>
