<?xml version="1.0" standalone="no"?>
<!DOCTYPE svg PUBLIC "-//W3C//DTD SVG 20010904//EN"
 "http://www.w3.org/TR/2001/REC-SVG-20010904/DTD/svg10.dtd">
<svg version="1.0" xmlns="http://www.w3.org/2000/svg"
 width="512.000000pt" height="214.000000pt" viewBox="0 0 512.000000 214.000000"
 preserveAspectRatio="xMidYMid meet">
<metadata>
Created by potrace 1.15, written by Peter Selinger 2001-2017
</metadata>
<g transform="translate(0.000000,214.000000) scale(0.100000,-0.100000)"
fill="#000000" stroke="none">
<path d="M510 1030 l0 -780 120 0 120 0 1 498 1 497 39 -145 c67 -245 70 -255
78 -240 5 8 30 98 57 200 l49 185 3 -497 2 -498 120 0 120 0 0 780 0 780 -93
0 -93 0 -84 -291 c-47 -160 -87 -284 -89 -277 -3 7 -41 137 -86 288 l-80 275
-93 3 -92 3 0 -781z"/>
<path d="M1578 1796 c-97 -35 -187 -135 -227 -254 -20 -59 -21 -80 -21 -677
l0 -615 120 0 120 0 0 340 0 340 115 0 115 0 0 -340 0 -340 120 0 120 0 0 609
c0 569 -1 613 -19 670 -10 33 -30 80 -44 104 -37 63 -127 142 -183 161 -57 19
-165 20 -216 2z m163 -176 c46 -25 53 -62 57 -292 l4 -218 -116 0 -116 0 0
193 c1 276 17 327 107 327 25 0 53 -5 64 -10z"/>
<path d="M2150 1030 l0 -780 120 0 120 0 2 413 3 412 140 -412 140 -413 92 0
93 0 0 780 0 780 -120 0 -120 0 -2 -415 -3 -416 -140 416 -140 415 -92 0 -93
0 0 -780z"/>
<path d="M2970 1720 l0 -90 115 0 115 0 0 -605 0 -605 -115 0 -115 0 0 -85 0
-85 355 0 355 0 0 85 0 85 -115 0 -115 0 0 605 0 605 115 0 115 0 0 90 0 90
-355 0 -355 0 0 -90z"/>
<path d="M3790 1030 l0 -780 120 0 120 0 1 328 0 327 112 -327 112 -328 129 0
c98 0 127 3 123 13 -3 6 -71 182 -151 390 l-146 377 146 378 c80 207 148 383
151 390 4 9 -25 12 -123 12 l-129 0 -112 -328 -112 -327 0 328 -1 327 -120 0
-120 0 0 -780z"/>
</g>
</svg>
