<svg xmlns="http://www.w3.org/2000/svg" viewBox="0 0 256 256" fill="currentColor"><path d="M211.8 170.7c-3.4 7.8-7.4 15-12.1 21.6-6.4 9-11.6 15.3-15.6 18.8-6.2 5.7-12.8 8.6-19.9 8.8-5.1 0-11.2-1.4-18.4-4.4-7.2-2.9-13.7-4.4-19.8-4.4-6.3 0-13.1 1.4-20.3 4.4-7.2 3-13 4.5-17.4 4.7-6.8 .3-13.6-2.7-20.3-9-4.4-3.8-9.8-10.3-16.2-19.6-6.9-9.9-12.5-21.4-17-34.4-4.8-14.1-7.2-27.7-7.2-40.9 0-15.1 3.3-28.2 9.8-39.1 5.1-8.8 12-15.7 20.5-20.8 8.6-5.1 17.9-7.7 27.9-7.9 5.4 0 12.4 1.7 21.2 5 8.7 3.3 14.3 5 16.8 5 1.8 0 8-1.9 18.6-5.8 10-3.6 18.4-5.1 25.3-4.5 18.7 1.5 32.8 8.9 42.1 22.2-16.7 10.1-24.9 24.3-24.8 42.4 .2 14.1 5.3 25.9 15.4 35.2 4.6 4.3 9.7 7.7 15.4 10-1.2 3.6-2.5 7-3.9 10.3zM166.1 7.8c0 11.3-4.1 21.8-12.4 31.6-9.9 11.6-22 18.3-35.1 17.2-.2-1.4-.3-2.8-.3-4.3 0-10.8 4.7-22.4 13.1-31.9 4.2-4.8 9.5-8.8 16-12 6.4-3.1 12.5-4.9 18.2-5.2 .2 1.6 .3 3.1 .3 4.6z"/></svg>
